<?xml version="1.0" standalone="no"?><!DOCTYPE svg PUBLIC "-//W3C//DTD SVG 1.1//EN" "http://www.w3.org/Graphics/SVG/1.1/DTD/svg11.dtd"><svg t="1551850177798" class="icon" style="" viewBox="0 0 1024 1024" version="1.1" xmlns="http://www.w3.org/2000/svg" p-id="3870" xmlns:xlink="http://www.w3.org/1999/xlink" width="200" height="200"><defs><style type="text/css"></style></defs><path d="M896 789.333333v21.333334H128v-42.666667h42.666667V213.333333h469.333333v213.333334h213.333333v341.333333h42.666667v42.666667h-256v-42.666667h256v21.333333zM256 384h42.666667V298.666667H256v85.333333z m128 0h42.666667V298.666667H384v85.333333z m-128 128h42.666667v-85.333333H256v85.333333z m128 0h42.666667v-85.333333H384v85.333333z m-128 128h42.666667v-85.333333H256v85.333333z m128 0h42.666667v-85.333333H384v85.333333z m128-256h42.666667V298.666667h-42.666667v85.333333z m0 128h42.666667v-85.333333h-42.666667v85.333333z m0 128h42.666667v-85.333333h-42.666667v85.333333z m128-85.333333h128v-42.666667h-128v42.666667z m0 85.333333h128v-42.666667h-128v42.666667z m0 85.333333h128v-42.666666h-128v42.666666z m-384 0h298.666667v-42.666666H256v42.666666z" fill="#1296db" p-id="3871"></path></svg>