<?xml version="1.0" standalone="no"?><!DOCTYPE svg PUBLIC "-//W3C//DTD SVG 1.1//EN" "http://www.w3.org/Graphics/SVG/1.1/DTD/svg11.dtd"><svg t="1551850292415" class="icon" style="" viewBox="0 0 1024 1024" version="1.1" xmlns="http://www.w3.org/2000/svg" p-id="8896" xmlns:xlink="http://www.w3.org/1999/xlink" width="200" height="200"><defs><style type="text/css"></style></defs><path d="M483.1 510.6l98.8 177.8-197.5-19.8 98.7-158m1.5-59.8L332.6 694l304 30.4-152-273.6zM697.5 488.4l42 84H710L673.6 536l23.9-47.6m0-68L636.6 542l91.2 60.8h60.8l-91.1-182.4z" fill="#1296db" p-id="8897"></path><path d="M708.9 574.3L689 554.4 644.2 542l95.6 89.4 47.2 39.3-120.8 96.6-418.6-27.9 32-51.9 25.8-42-48.8-6.9-175.1-25.1 118-212.2L329.2 531l28.9 28.9 21.4-34.8 78.9-128.2 131 109.1 31.3 26.1 18.2-36.5 80-159.9 227.9 202.6-53.9 36H789.6l-16.1 32.3h129.1l97-64.6-290.7-258.4-98.8 197.6-159.7-133L352 508.1 192 348.2 30.5 638.9 252 670.5l-60 97.6 484.5 32.3 161.6-129.2-77.6-64.6h13z" fill="#1296db" p-id="8898"></path><path d="M241.4 481.2L164 635.9l138.2 27.7h30.4l-91.2-182.4z m-42 152l42-84 42 84h-84z" fill="#1296db" p-id="8899"></path></svg>